<?xml version="1.0" encoding="UTF-8" standalone="no"?><!DOCTYPE svg PUBLIC "-//W3C//DTD SVG 1.1//EN" "http://www.w3.org/Graphics/SVG/1.1/DTD/svg11.dtd"><svg width="100%" height="100%" viewBox="0 0 568 548" version="1.1" xmlns="http://www.w3.org/2000/svg" xmlns:xlink="http://www.w3.org/1999/xlink" xml:space="preserve" xmlns:serif="http://www.serif.com/" style="fill-rule:evenodd;clip-rule:evenodd;stroke-linejoin:round;stroke-miterlimit:2;"><g><path d="M469.226,1.642c-7.75,-3.905 -17.19,-0.597 -20.82,7.291c-5.26,11.443 -11.48,24.961 -14.89,32.355c-64.49,134.437 -140.38,264.141 -223.46,388.04c-5.47,-7.483 -11.02,-14.899 -16.7,-22.214c-34.65,-44.77 -71.73,-87.784 -111.9,-127.751c-6.39,-6.354 -16.88,-5.789 -22.57,1.193l-55.45,68c-5.43,6.655 -4.3,16.474 2.51,21.715c20.76,15.994 62.26,48.356 83.56,67.202c15.28,13.51 31.25,27.946 45.6,42.481c20.51,20.77 37.74,40.999 50.23,56.594c11.82,14.748 34.14,15.075 46.41,0.699c7.63,-8.95 14.49,-16.989 16.2,-19.013c105.69,-126.159 203.66,-260.306 289.03,-401.136c8.35,-13.498 19.26,-32.452 28.65,-48.794c4.39,-7.634 1.47,-17.378 -6.39,-21.338c-22.92,-11.542 -67.28,-33.879 -90.01,-45.324Z" style="fill:#fff;fill-rule:nonzero;"/></g></svg>